HIERARCHY
ROOT Hips
{
    OFFSET 0.000000 0.000000 0.000000
    CHANNELS 6 Xposition Yposition Zposition Zrotation Xrotation Yrotation
    JOINT Spine
    {
        OFFSET -0.000000 14.517291 0.000000
        CHANNELS 3 Zrotation Xrotation Yrotation
        JOINT Spine1
        {
            OFFSET -0.000000 37.558300 0.000000
            CHANNELS 3 Zrotation Xrotation Yrotation
            JOINT Neck
            {
                OFFSET -0.000000 37.404057 3.400369
                CHANNELS 3 Zrotation Xrotation Yrotation
                JOINT Head
                {
                    OFFSET -0.000000 24.785618 -3.540803
                    CHANNELS 3 Zrotation Xrotation Yrotation
                    End Site
                    {
                        OFFSET -0.000000 35.408028 0.000000
                    }
                }
            }
            JOINT LeftShoulder
            {
                OFFSET 6.992933 33.973492 -0.192664
                CHANNELS 3 Zrotation Xrotation Yrotation
                JOINT LeftArm
                {
                    OFFSET 21.527611 0.000000 0.000000
                    CHANNELS 3 Zrotation Xrotation Yrotation
                    JOINT LeftForeArm
                    {
                        OFFSET 56.353916 0.000000 0.000000
                        CHANNELS 3 Zrotation Xrotation Yrotation
                        JOINT LeftHand
                        {
                            OFFSET 47.774071 0.000000 0.000000
                            CHANNELS 3 Zrotation Xrotation Yrotation
                            End Site
                            {
                                OFFSET 26.556021 0.000000 0.000000
                            }
                        }
                    }
                }
            }
            JOINT RightShoulder
            {
                OFFSET -7.065357 33.973492 -0.192664
                CHANNELS 3 Zrotation Xrotation Yrotation
                JOINT RightArm
                {
                    OFFSET -21.527611 0.000000 0.000000
                    CHANNELS 3 Zrotation Xrotation Yrotation
                    JOINT RightForeArm
                    {
                        OFFSET -56.353916 0.000000 0.000000
                        CHANNELS 3 Zrotation Xrotation Yrotation
                        JOINT RightHand
                        {
                            OFFSET -47.774071 0.000000 0.000000
                            CHANNELS 3 Zrotation Xrotation Yrotation
                            End Site
                            {
                                OFFSET -26.556021 0.000000 0.000000
                            }
                        }
                    }
                }
            }
        }
    }
    JOINT LeftUpLeg
    {
        OFFSET 17.704014 0.000000 0.000000
        CHANNELS 3 Zrotation Xrotation Yrotation
        JOINT LeftLeg
        {
            OFFSET -0.000000 -81.181816 0.000000
            CHANNELS 3 Zrotation Xrotation Yrotation
            JOINT LeftFoot
            {
                OFFSET -0.000000 -62.821102 0.000000
                CHANNELS 3 Zrotation Xrotation Yrotation
                JOINT LeftToeBase
                {
                    OFFSET -0.000000 -11.507608 26.556021
                    CHANNELS 3 Zrotation Xrotation Yrotation
                    End Site
                    {
                        OFFSET -0.000000 0.000000 7.081605
                    }
                }
            }
        }
    }
    JOINT RightUpLeg
    {
        OFFSET -17.704014 0.000000 0.000000
        CHANNELS 3 Zrotation Xrotation Yrotation
        JOINT RightLeg
        {
            OFFSET -0.000000 -81.181816 0.000000
            CHANNELS 3 Zrotation Xrotation Yrotation
            JOINT RightFoot
            {
                OFFSET -0.000000 -62.821102 0.000000
                CHANNELS 3 Zrotation Xrotation Yrotation
                JOINT RightToeBase
                {
                    OFFSET -0.000000 -11.507608 26.556021
                    CHANNELS 3 Zrotation Xrotation Yrotation
                    End Site
                    {
                        OFFSET -0.000000 0.000000 7.081605
                    }
                }
            }
        }
    }
}
MOTION
Frames:    5
Frame Time:    0.008333
-19.901356    162.831161    -77.315514    -7.939166    -24.269085    44.438816    3.371463    5.560540    -4.244241    4.021689    8.065835    -1.642005    18.540174    1.376322    -5.648508    5.519597    -3.774426    -7.469069    12.329169    3.104766    -23.349922    -26.133795    -1.750511    -68.863518    11.775778    -50.712967    -77.584969    -21.337648    -39.723415    -31.783373    13.261250    7.794266    -9.705132    32.511322    17.344786    17.521780    -12.953677    3.943011    34.466511    -24.279778    0.936248    31.869791    26.339584    0.284613    5.094762    -5.151361    39.714233    -17.144867    9.148440    -23.900642    34.685329    0.000000    0.000000    0.000000    -86.175270    -43.289448    -51.223953    7.967655    16.740591    -6.642622    21.777538    9.970959    -34.882698    0.000000    0.000000    0.000000    
-19.891720    162.823303    -77.318428    -7.940384    -24.265253    44.437492    3.371830    5.533352    -4.242984    4.021136    8.125484    -1.643865    18.527021    1.359219    -5.659853    5.553383    -3.766573    -7.476406    12.273829    3.244857    -23.317690    -26.186005    -1.464337    -68.800537    11.541462    -50.412865    -77.499794    -21.194698    -39.587307    -31.549444    13.247043    7.780716    -9.721507    32.523293    17.349051    17.544035    -12.962794    3.932762    34.434608    -24.268635    0.921843    31.896921    26.332386    0.280315    5.093835    -5.155734    39.721130    -17.119751    9.170433    -23.901932    34.680962    0.000000    0.000000    0.000000    -86.111588    -43.220284    -51.188114    8.662625    16.151756    -8.373308    20.087852    10.895613    -34.532623    0.000000    0.000000    0.000000    
-19.877613    162.819092    -77.319923    -7.937604    -24.272009    44.448280    3.369531    5.514606    -4.247411    4.034584    8.185342    -1.648638    18.487225    1.357849    -5.687079    5.620244    -3.780708    -7.487125    12.216549    3.393948    -23.288210    -26.357183    -1.294925    -68.746559    11.118980    -49.965778    -77.533325    -21.132330    -39.352741    -31.365683    13.219062    7.763673    -9.734866    32.543297    17.365583    17.555035    -12.970068    3.914878    34.414024    -24.273909    0.898055    31.913996    26.328562    0.278258    5.087722    -5.144338    39.735981    -17.125048    9.165630    -23.912207    34.681213    0.000000    0.000000    0.000000    -86.155708    -43.269863    -51.213917    7.946864    16.720606    -6.664088    21.772354    9.965322    -34.876286    0.000000    0.000000    0.000000    
-19.869232    162.817902    -77.317924    -7.938695    -24.288864    44.457310    3.388680    5.514646    -4.248622    4.018053    8.230583    -1.649106    18.477837    1.329689    -5.707759    5.667440    -3.759572    -7.504860    12.181018    3.521143    -23.264204    -26.416494    -1.005420    -68.710121    10.935926    -49.729771    -77.410614    -21.022631    -39.258179    -31.150402    13.221309    7.749077    -9.759886    32.549393    17.356419    17.571220    -12.949402    3.924660    34.400612    -24.292889    0.888439    31.937679    26.340242    0.279941    5.068419    -5.152870    39.747444    -17.104431    9.174353    -23.915369    34.678772    0.000000    0.000000    0.000000    -86.052162    -43.180023    -51.161850    8.643226    16.122179    -8.333015    20.092117    10.840471    -34.576859    0.000000    0.000000    0.000000    
-19.856621    162.815277    -77.317474    -7.934869    -24.300406    44.465611    3.396475    5.505319    -4.245134    4.014831    8.278486    -1.649331    18.467710    1.317706    -5.727127    5.698692    -3.756779    -7.520333    12.136526    3.647515    -23.263037    -26.468184    -0.750149    -68.656685    10.702668    -49.514393    -77.325424    -20.955009    -39.212631    -30.893297    13.209901    7.740494    -9.778879    32.568478    17.369480    17.573441    -12.963119    3.906150    34.381844    -24.282656    0.870971    31.954615    26.339993    0.280855    5.061463    -5.140163    39.767635    -17.120516    9.173849    -23.924639    34.685158    0.000000    0.000000    0.000000    -86.078209    -43.236298    -51.197330    7.906139    16.692499    -6.617676    21.764158    9.903989    -34.895618    0.000000    0.000000    0.000000    
